<?xml version="1.0" encoding="UTF-8" standalone="no"?><!DOCTYPE svg PUBLIC "-//W3C//DTD SVG 1.1//EN" "http://www.w3.org/Graphics/SVG/1.1/DTD/svg11.dtd"><svg width="100%" height="100%" viewBox="0 0 1761 1761" version="1.1" xmlns="http://www.w3.org/2000/svg" xmlns:xlink="http://www.w3.org/1999/xlink" xml:space="preserve" xmlns:serif="http://www.serif.com/" style="fill-rule:evenodd;clip-rule:evenodd;stroke-miterlimit:2;"><circle cx="866.667" cy="866.667" r="883.333" style="fill:#f77162;"/><rect id="BenderCircle" x="0" y="0" width="1760.71" height="1760.71" style="fill:none;"/><g transform="matrix(1281.31,0,0,1281.31,1404.21,1422.87)"></g><text x="311.836px" y="1422.87px" style="font-family:'Strato-Medium', 'Strato';font-weight:500;font-size:1281.31px;fill:#fff;stroke:#000;stroke-width:57.36px;">B</text><g transform="matrix(3.20328,0,0,3.20328,-366.79,-4308.9)"><g transform="matrix(400,0,0,400,558.072,1784.14)"></g><text x="217.056px" y="1784.14px" style="font-family:'Strato-Medium', 'Strato';font-weight:500;font-size:400px;fill:#fff;">B</text><path d="M228.97,1778.7c0,-3.587 0.586,-7.372 1.758,-11.356l45.899,-141.675c0.521,-0.909 3.19,-9.287 8.008,-25.134c4.817,-15.757 10.286,-34.574 16.406,-56.451c6.25,-22.268 10.807,-37.959 13.672,-47.074c-13.542,5.02 -22.917,7.529 -28.125,7.529c-3.125,0 -7.097,-1.058 -11.914,-3.174c-5.73,-3.172 -10.775,-7.501 -15.137,-12.988c-4.362,-5.487 -6.543,-10.61 -6.543,-15.369c-0,-3.125 1.367,-5.664 4.101,-7.617c16.928,-11.719 38.672,-21.094 65.235,-28.125c26.562,-6.901 53.841,-10.351 81.836,-10.351c60.156,-0 95.247,19.573 105.273,58.718c1.042,4.059 1.563,8.772 1.563,14.139c-0,18.372 -7.162,35.562 -21.485,51.572c-14.583,16.272 -29.817,27.82 -45.703,34.643c14.323,1.815 28.841,6.609 43.555,14.38c7.682,3.5 14.811,7.776 21.387,12.83c6.575,5.052 12.76,11.076 18.554,18.072c5.795,6.995 10.384,15.222 13.77,24.68c3.385,9.456 5.143,19.561 5.273,30.313l0,1.556c-1.692,23.45 -15.885,44.05 -42.578,61.799c-14.844,9.847 -32.682,18.073 -53.515,24.679c-47.136,15.418 -110.612,23.126 -190.43,23.126l-2.539,0.196c-1.823,0.13 -3.125,0.195 -3.906,0.195c-16.276,0 -24.415,-6.371 -24.415,-19.113Zm38.343,-303.518c0.607,1.441 1.734,2.918 3.057,4.583c3.046,3.832 6.528,6.914 10.494,9.202c2.309,1.005 4.174,1.733 5.724,1.733c4.338,-0 12.036,-2.486 23.315,-6.666l18.012,17.126c-2.839,9.034 -7.354,24.588 -13.548,46.659c-6.153,21.993 -11.651,40.911 -16.495,56.753c-4.661,15.33 -7.741,24.331 -8.859,27.125l0.779,-1.762l-45.842,141.505c-0.735,2.546 -1.14,4.962 -1.14,7.26c-0,1.316 -0.069,2.47 0.603,3.26c1.837,2.157 5.379,2.014 9.972,2.014c0.579,-0 1.54,-0.062 2.884,-0.158l3.029,-0.233l0.532,-0c78.006,-0 140.061,-7.373 186.187,-22.46l0.059,-0.019c19.472,-6.174 36.167,-13.813 50.042,-23.015c22.187,-14.755 34.807,-31.342 36.396,-50.799l-0,-0.957c-0.12,-9.12 -1.591,-17.696 -4.464,-25.72c-2.811,-7.854 -6.586,-14.707 -11.398,-20.516c-5.102,-6.161 -10.538,-11.478 -16.329,-15.927c-5.746,-4.416 -11.978,-8.15 -18.691,-11.208l-0.369,-0.168l-0.358,-0.189c-13.124,-6.933 -26.054,-11.269 -38.83,-12.888l-3.723,-26.445c14.232,-6.114 27.789,-16.582 40.855,-31.159c11.789,-13.18 17.955,-27.217 17.955,-42.341c0,-4.059 -0.34,-7.629 -1.129,-10.702l-0,-0.003c-8.634,-33.708 -40.068,-48.313 -91.867,-48.313c-26.794,0 -52.902,3.297 -78.326,9.899c-23.63,6.258 -43.214,14.404 -58.527,24.529Zm89.194,51.505l10.231,-33.416l0.025,-0.077c2.718,-8.517 4.585,-14.868 5.573,-19.063l2.242,-9.518l9.721,-1.065c10.142,-1.111 18.133,-1.645 23.968,-1.645c38.313,0 55.051,15.669 55.051,39.856l-0,3.813l-0.059,0.634c-1.413,15.331 -11.124,32.42 -30.984,50.208l-0.071,0.062c-18.485,16.11 -42.587,25.557 -72.514,27.794l-19.661,1.47l16.478,-59.053Zm2.151,43.782c26.562,-1.985 48.047,-10.128 64.453,-24.426c16.406,-14.695 25.195,-28.398 26.367,-41.107l0,-3.177c0,-17.344 -13.737,-26.016 -41.211,-26.016c-5.468,-0 -12.955,0.521 -22.461,1.562c-1.041,4.421 -2.994,11.12 -5.859,20.096l-10.156,33.173l-11.133,39.895Zm-29.422,45.493l4.739,-5.495l4.388,-2.387c3.664,-1.406 12.285,-2.622 25.959,-2.622c24.896,-0 49.52,3.234 73.894,9.715l0.026,0.007c14.73,3.977 26.504,9.67 35.464,16.781c11.547,9.163 16.76,19.959 16.76,31.785c0,6.953 -1.547,12.963 -4.337,18.071c-7.096,13.863 -19.443,26.094 -37.515,36.197c-16.627,9.293 -35.633,15.904 -57.105,19.744l-0.055,0.01c-32.447,5.535 -59.268,8.259 -80.452,8.259l-5.638,-0.839l-4.268,-2.031l-3.242,-2.832l-2.346,-3.485l-2.51,-5l36.238,-115.878Zm-21.359,114.67c0.521,1.037 1.562,1.556 3.125,1.556c20.573,0 46.614,-2.688 78.125,-8.063c19.791,-3.54 37.37,-9.604 52.734,-18.191c15.365,-8.59 26.042,-18.785 32.031,-30.585c1.823,-3.278 2.735,-7.145 2.735,-11.603c-0,-7.867 -3.841,-14.849 -11.524,-20.944c-7.682,-6.097 -17.838,-10.851 -30.468,-14.261c-23.178,-6.162 -46.615,-9.244 -70.313,-9.244c-13.802,0 -21.289,0.887 -22.461,2.662l-33.984,108.673Z" style="fill:#dadada;"/></g><g transform="matrix(1281.31,0,0,1281.31,1404.21,1422.87)"></g><text x="311.836px" y="1422.87px" style="font-family:'Strato-Medium', 'Strato';font-weight:500;font-size:1281.31px;fill:none;stroke:#000;stroke-width:57.36px;">B</text></svg>