<?xml version="1.0" encoding="UTF-8" standalone="no"?><!DOCTYPE svg PUBLIC "-//W3C//DTD SVG 1.1//EN" "http://www.w3.org/Graphics/SVG/1.1/DTD/svg11.dtd"><svg width="100%" height="100%" viewBox="0 0 6467 1761" version="1.1" xmlns="http://www.w3.org/2000/svg" xmlns:xlink="http://www.w3.org/1999/xlink" xml:space="preserve" xmlns:serif="http://www.serif.com/" style="fill-rule:evenodd;clip-rule:evenodd;stroke-miterlimit:2;"><rect id="Bender" x="-0" y="0" width="6466.67" height="1760.71" style="fill:none;"/><clipPath id="_clip1"><rect x="-0" y="0" width="6466.67" height="1760.71"/></clipPath><g clip-path="url(#_clip1)"><ellipse cx="3241.67" cy="883.333" rx="3225" ry="866.667" style="fill:#f77162;"/><path d="M3241.67,16.667c1779.93,-0 3225,388.34 3225,866.666c-0,478.327 -1445.07,866.667 -3225,866.667c-1779.93,0 -3225,-388.34 -3225,-866.667c-0,-478.326 1445.07,-866.666 3225,-866.666Zm-0,59.221c-1233.95,0 -2305.75,186.328 -2837.56,461.886c-107.829,55.871 -192.61,114.966 -250.036,177.463c-49.758,54.152 -78.182,109.839 -78.182,168.096c0,58.258 28.424,113.945 78.182,168.097c57.426,62.496 142.207,121.592 250.036,177.463c531.815,275.558 1603.61,461.885 2837.56,461.885c1233.95,0 2305.74,-186.327 2837.56,-461.885c107.829,-55.871 192.611,-114.967 250.036,-177.463c49.758,-54.152 78.182,-109.839 78.182,-168.097c0,-58.257 -28.424,-113.944 -78.182,-168.096c-57.425,-62.497 -142.207,-121.592 -250.036,-177.463c-531.815,-275.558 -1603.61,-461.886 -2837.56,-461.886Z"/><g transform="matrix(1281.31,0,0,1281.31,6208.5,1452.04)"></g><text x="311.836px" y="1452.04px" style="font-family:'Strato-Medium', 'Strato';font-weight:500;font-size:1281.31px;fill:#fff;stroke:#000;stroke-width:57.36px;">Bender</text><g transform="matrix(3.20328,0,0,3.20328,-366.79,-4279.74)"><g transform="matrix(400,0,0,400,2057.88,1784.14)"></g><text x="217.056px" y="1784.14px" style="font-family:'Strato-Medium', 'Strato';font-weight:500;font-size:400px;fill:#fff;">Bender</text><path d="M1196.94,1711.68l0,-7.226c0,-10.287 1.237,-20.899 3.711,-31.836c4.037,-16.927 9.375,-31.381 16.016,-43.36c6.64,-13.021 15.299,-25.26 25.976,-36.718c9.896,-9.896 21.094,-18.555 33.594,-25.977c10.547,-5.99 20.833,-9.896 30.859,-11.719c4.167,-0.521 7.878,-0.781 11.133,-0.781c6.511,0 11.719,0.582 15.625,1.746c4.818,1.294 11.328,3.817 19.532,7.571c4.817,1.941 7.617,1.579 8.398,-1.086l1.562,-6.257l1.368,-6.103l14.257,-54.868l12.11,-46.334l8.398,-30.964l9.18,-28.32l8.008,-19.336c6.771,-13.541 17.318,-20.312 31.64,-20.312c3.776,-0 7.618,0.39 11.524,1.172c6.25,1.171 12.37,4.752 18.359,10.742c4.818,4.427 7.227,9.765 7.227,16.015c-0,0.131 -0.261,2.279 -0.781,6.446c-0.651,4.036 -14.388,52.983 -41.211,146.841c-25.521,88.934 -39.258,140.107 -41.211,153.519c-2.604,9.348 -3.907,18.497 -3.907,27.444c0,5.062 0.521,8.826 1.563,11.292c1.172,3.375 3.32,6.036 6.445,7.983c2.084,1.298 4.199,1.947 6.348,1.947c2.148,0 4.264,-0.643 6.348,-1.929l0.781,-0.387l1.172,-0.772c0.781,-0.513 1.367,-0.963 1.757,-1.349c0.391,-0.128 0.944,-0.386 1.661,-0.772c0.716,-0.387 1.302,-0.741 1.757,-1.062c0.456,-0.322 0.749,-0.482 0.879,-0.482c2.474,-0.771 5.144,-0.771 8.008,-0c2.474,1.287 4.362,3.154 5.664,5.6c2.604,3.344 4.297,8.041 5.078,14.09l0,3.28c0,4.118 -0.781,7.913 -2.343,11.386c-2.084,5.019 -5.925,9.266 -11.524,12.741c-3.646,2.702 -8.854,4.953 -15.625,6.754c-5.599,1.672 -11.588,2.959 -17.969,3.86c-4.687,1.03 -11.523,1.545 -20.507,1.545l-2.735,-0c-6.64,-0 -13.346,-0.515 -20.117,-1.545c-6.12,-1.029 -10.872,-2.638 -14.258,-4.827c-2.864,-2.446 -4.362,-3.733 -4.492,-3.861l-2.344,-3.476l-1.562,-3.281l-10.547,4.825l-12.305,5.405c-4.166,1.801 -9.114,3.281 -14.844,4.44c-9.765,1.286 -17.252,1.929 -22.46,1.929c-4.948,0 -9.831,-0.391 -14.649,-1.172c-7.682,-1.172 -15.299,-3.711 -22.851,-7.617c-10.157,-5.208 -18.295,-12.826 -24.415,-22.852c-7.682,-11.588 -12.109,-25.586 -13.281,-41.992Zm234.143,27.997l0.162,0.063l0.045,-0.016c-0.05,-0.043 -0.098,-0.081 -0.154,-0.064l-0.053,0.017Zm-84.438,26.533c0.567,0.487 1.315,1.129 2.187,1.874c2.065,1.136 4.869,1.827 8.324,2.413c6.027,0.91 11.997,1.367 17.909,1.367l2.735,0c7.68,0 13.531,-0.342 17.539,-1.222l0.513,-0.112l0.52,-0.074c5.66,-0.8 10.976,-1.934 16.145,-3.478l0.203,-0.054c4.705,-1.251 8.407,-2.62 10.941,-4.498l0.458,-0.339l0.484,-0.3c2.842,-1.764 4.982,-3.741 6.117,-6.476l0.084,-0.185c0.782,-1.738 1.125,-3.647 1.125,-5.708l-0.001,-2.35c-0.382,-2.663 -0.916,-4.852 -2.074,-6.408l-0.007,0.003c0,0 -1.252,0.99 -1.269,1.006l-1.172,0.773l-0.706,0.465l-1.539,0.763l1.118,-0.621l-6.394,2.912l-7.222,1.08l-7.257,-1.096l-6.409,-2.945c-5.827,-3.63 -9.829,-8.598 -12.064,-14.804c-1.444,-3.651 -2.465,-9.027 -2.465,-16.217c-0,-9.902 1.385,-20.024 4.191,-30.342c2.42,-14.853 16.184,-66.345 41.461,-154.43c26.183,-91.62 39.845,-139.955 40.823,-145.067c0.285,-2.286 0.503,-4.08 0.613,-4.993c-0.155,-2.037 -1.134,-3.776 -2.945,-5.441l-0.207,-0.206c-3.689,-3.69 -7.273,-6.204 -11.206,-6.941l-0.081,-0.017c-2.987,-0.597 -5.923,-0.903 -8.81,-0.903c-8.633,0 -14.897,4.215 -19.058,12.261l-7.594,18.337l-8.907,27.479l-8.294,30.577l-12.09,46.263l-14.197,54.632l-1.353,6.039l-1.671,6.691l-1.464,3.658l-2.375,3.36l-3.273,2.769l-3.658,1.771l-3.366,0.796l-4.362,0.1c-2.302,-0.194 -5.135,-0.827 -8.727,-2.275l-0.291,-0.132c-7.301,-3.341 -13.075,-5.639 -17.544,-6.839l-0.18,-0.054c-2.915,-0.868 -6.816,-1.17 -11.674,-1.17c-2.65,0 -5.656,0.217 -9.038,0.629c-8.46,1.591 -17.113,4.965 -26.016,10.008c-11.362,6.759 -21.556,14.627 -30.59,23.632c-9.681,10.423 -17.554,21.541 -23.698,33.588l-0.116,0.209c-6.091,10.988 -10.933,24.263 -14.643,39.798c-2.222,9.855 -3.348,19.417 -3.348,28.688l-0,6.717l0,0.01c1.034,13.577 4.597,25.222 11.119,35.06l0.135,0.221c4.747,7.777 11.039,13.707 18.938,17.758l0.022,0.012c6.144,3.177 12.33,5.275 18.644,6.238l0.064,0.01c4.089,0.663 8.234,0.994 12.434,0.994c4.703,-0 11.424,-0.606 20.175,-1.748c4.46,-0.926 8.336,-2.062 11.612,-3.474l12.16,-5.341l22.844,-10.451l6.979,14.653l0.739,1.097Zm-56.769,-32.862c-1.768,0.311 -4.289,0.57 -7.584,0.57c-4.289,0 -7.768,-0.602 -10.477,-1.516l-0.55,-0.185l-0.532,-0.231c-7.263,-3.148 -12.151,-7.16 -15.163,-11.336c-4.569,-5.882 -7.316,-12.443 -8.283,-19.666l-0.166,-0.543c-0.191,-1.259 -0.348,-3.338 -0.348,-6.244c-0,-4.647 0.518,-9.036 1.515,-13.145c3.57,-16.661 12.144,-33.192 26.05,-49.389c5.403,-6.795 11.129,-12.248 17.092,-16.417c3.136,-2.628 6.487,-4.895 10.028,-6.793c3.978,-2.341 8.775,-4.021 14.468,-4.815l0.952,-0.133l3.304,-0c3.635,-0 6.754,0.558 9.389,1.472l3.956,2.125l4.245,2.548c1.325,1.112 2.95,2.74 4.791,4.965l0.225,0.272l3.31,5.683c0.676,1.586 1.212,3.268 1.587,5.02c1.556,5.392 2.352,11.094 2.352,17.111l-1.09,7.886l0.7,-4.346l-0,4.035l-0.013,0.298c-0.446,10.319 -2.235,20.263 -5.356,29.836l-0.329,1.01l-3.506,6.93l-0.935,2.381l-0.001,0.004c-0.492,1.252 -0.893,2.286 -1.201,3.102l-1.717,3.674l-0.065,0.084l-4.286,7.274l-5.462,7.88l-0.566,0.634c-10.113,11.33 -22.299,17.935 -36.457,19.994l0.123,-0.029Zm-29.264,-39.151c0,2.767 0.13,4.414 0.391,4.94c0.651,4.873 2.539,9.285 5.664,13.236c1.823,2.635 5.013,4.94 9.57,6.915c1.563,0.527 3.581,0.791 6.055,0.791c2.864,-0 4.687,-0.133 5.469,-0.397c10.937,-1.591 20.312,-6.763 28.125,-15.515l4.687,-6.763l4.102,-6.961c0.13,-0.132 0.358,-0.63 0.683,-1.492c0.326,-0.863 0.749,-1.956 1.27,-3.281l1.172,-2.985l3.32,-6.564c2.734,-8.388 4.297,-17.103 4.687,-26.144l0,-3.736c0.261,-0.787 0.391,-1.967 0.391,-3.54c0,-4.848 -0.651,-9.435 -1.953,-13.76c-0.391,-2.096 -1.172,-3.93 -2.344,-5.502c-1.953,-2.36 -3.45,-3.737 -4.492,-4.129c-1.693,-1.311 -4.102,-1.966 -7.227,-1.966l-2.343,0c-3.776,0.527 -6.966,1.581 -9.571,3.162c-2.994,1.581 -5.794,3.49 -8.398,5.728c-5.208,3.556 -10.156,8.298 -14.844,14.224c-12.37,14.358 -20.117,28.913 -23.242,43.665c-0.781,3.159 -1.172,6.517 -1.172,10.074Zm167.844,46.09l-1.438,0c0.307,0 0.8,0.033 1.438,0Zm0.987,-0.099l0.041,-0.006l-0.004,-0.005l-0.037,0.011Zm-568.831,21.102c0,-2.735 0.456,-6.185 1.367,-10.352c2.214,-13.021 4.037,-29.557 5.469,-49.609c1.563,-23.308 6.12,-42.904 13.672,-58.789l16.016,-13.672c5.859,-3.386 11.458,-5.078 16.796,-5.078c3.907,-0 7.487,0.911 10.743,2.734c8.463,4.557 13.802,8.984 16.015,13.281c2.735,6.511 4.492,11.003 5.274,13.477c2.083,6.25 3.125,9.896 3.125,10.937c0.781,2.474 1.823,3.255 3.125,2.344l13.672,-16.797l18.75,-25.976l11.718,-16.407l11.524,-14.843c3.125,-3.646 6.315,-6.706 9.57,-9.18c5.599,-3.906 10.807,-7.096 15.625,-9.57c5.599,-3.386 11.719,-6.185 18.359,-8.399c4.428,-1.953 10.287,-3.32 17.579,-4.101l3.32,-0c4.687,-0 9.635,1.237 14.844,3.711c5.859,3.385 11.002,8.463 15.429,15.234c4.948,7.422 8.594,16.992 10.938,28.711c0.521,15.364 0.781,23.893 0.781,25.586c0,2.213 -0.26,9.961 -0.781,23.242c-0.651,9.635 -2.149,23.633 -4.492,41.992c-0.782,8.464 -1.172,14.323 -1.172,17.578c-0,2.084 0.13,3.255 0.39,3.516c0,0.781 0.521,2.018 1.563,3.711c0.651,1.041 2.279,2.213 4.883,3.515c1.953,1.172 4.752,0.782 8.398,-1.171l4.297,-2.344l7.227,-3.711l8.007,-3.516l8.789,-2.734c1.303,-0.261 3.842,-0.391 7.618,-0.391c2.604,0.391 4.622,1.302 6.054,2.735c5.339,6.901 8.008,13.151 8.008,18.75c0,4.557 -1.888,9.244 -5.664,14.062c-7.943,10.417 -18.75,18.945 -32.422,25.586c-13.932,6.771 -25.26,10.352 -33.984,10.742c-1.823,0.261 -6.055,0.391 -12.696,0.391c-11.588,-0 -21.744,-1.563 -30.468,-4.688c-10.026,-3.515 -16.667,-8.854 -19.922,-16.015l-2.149,-4.102c-2.994,-6.51 -4.817,-11.393 -5.468,-14.648l-0,-13.672c-0,-5.339 0.13,-9.636 0.39,-12.891c1.042,-18.359 1.563,-30.208 1.563,-35.547c-0,-9.114 -0.521,-13.671 -1.563,-13.671c-2.604,2.604 -15.299,17.968 -38.086,46.093c-22.135,27.474 -40.755,48.828 -55.859,64.063c-5.208,4.817 -12.305,8.268 -21.289,10.351c-5.469,1.302 -10.156,1.953 -14.063,1.953c-5.208,0 -9.83,-0.52 -13.867,-1.562c-9.896,-2.344 -17.513,-7.162 -22.851,-14.453c-2.735,-4.557 -4.102,-10.026 -4.102,-16.406Zm295.497,-33.234c-0.604,0.005 -1.105,0.021 -1.501,0.06l-7.112,2.212l-6.912,3.035l-6.7,3.44l-4.191,2.286l-0.046,0.025c-2.358,1.263 -4.538,2.119 -6.502,2.654l-5.27,0.808l-5.1,-0.512l-5.182,-2.11l0.931,0.511c-2.634,-1.318 -4.639,-2.616 -6.089,-3.775c0,0 -4.34,-4.784 -4.365,-4.825l-2.93,-6.247l-0.075,-0.501l-0.067,-0.146l-0.238,-1.898l-0.331,-2.213l0.075,0.18l-0.466,-3.696c0,-3.49 0.393,-9.775 1.253,-19.091l0.031,-0.239c2.282,-17.88 3.753,-31.539 4.399,-40.98c0.503,-12.851 0.763,-20.351 0.763,-22.502c-0,-1.619 -0.249,-9.602 -0.735,-23.956c-1.929,-9.182 -4.73,-16.77 -8.694,-22.716l-0.034,-0.051c-3,-4.588 -6.377,-8.162 -10.317,-10.556c-2.939,-1.339 -5.71,-2.124 -8.373,-2.124l-2.567,0.001c-5.242,0.598 -9.509,1.495 -12.745,2.923l-0.594,0.262l-0.616,0.205c-5.632,1.878 -10.827,4.241 -15.575,7.112l-0.411,0.249l-0.428,0.22c-4.257,2.186 -8.846,5.006 -13.793,8.446c-2.384,1.841 -4.709,4.101 -7.008,6.757l-11.138,14.348l-11.579,16.21l-19.005,26.329l-15.142,18.604l-5.543,3.137l-3.706,0.786l-3.509,-0.116l-3.388,-0.929l-3.138,-1.726l-2.266,-1.972l-2.511,-3.419l-1.777,-4.169l-0.643,-2.034l0,-0.863c-0.353,-1.234 -1.32,-4.547 -2.449,-7.936l-0.033,-0.105c-0.687,-2.174 -2.223,-6.047 -4.569,-11.644c-1.489,-2.459 -5.15,-4.439 -10.185,-7.15l-0.1,-0.056c-1.203,-0.674 -2.537,-0.97 -3.981,-0.97c-2.844,0 -5.759,0.987 -8.847,2.649l-12.656,10.805c-6.18,14.046 -9.828,31.12 -11.175,51.201l-0.002,0.031c-1.471,20.591 -3.356,37.571 -5.683,51.263l-0.07,0.317c-0.652,2.981 -1.047,5.439 -1.047,7.395c-0,3.355 0.513,6.301 1.841,8.776c3.433,4.393 8.319,7.161 14.596,8.648l0.134,0.035c3.029,0.781 6.502,1.123 10.409,1.123c3.019,0 6.632,-0.571 10.897,-1.586l0.04,-0.009c6.173,-1.432 11.175,-3.572 14.825,-6.855c14.809,-14.963 33.024,-35.891 54.684,-62.775l0.012,-0.015c23.337,-28.804 36.386,-44.5 39.053,-47.167l4.054,-4.054l10.595,0.859l3.757,2.054l2.675,2.649l1.854,3.07c0.963,2.107 2.253,8.347 2.253,18.879c0,5.457 -0.52,17.567 -1.594,36.491l-0.012,0.16c-0.238,2.976 -0.347,6.906 -0.347,11.787l0.001,12.083c0.675,2.465 2.078,5.823 4.055,10.135l2.161,4.125l0.16,0.352c1.876,4.128 6.123,6.656 11.946,8.698l0.044,0.016c7.383,2.645 15.993,3.876 25.801,3.876c5.616,0 9.197,-0.031 10.739,-0.251l0.666,-0.095l0.672,-0.03c7.355,-0.33 16.808,-3.656 28.556,-9.365c11.551,-5.611 20.753,-12.728 27.52,-21.603l0.057,-0.072c1.533,-1.957 2.717,-3.674 2.717,-5.525c-0,-2.415 -1.236,-4.881 -3.164,-7.648Zm-927.138,50.644c0,-3.587 0.586,-7.372 1.758,-11.356l45.899,-141.675c0.521,-0.909 3.19,-9.287 8.008,-25.134c4.817,-15.757 10.286,-34.574 16.406,-56.451c6.25,-22.268 10.807,-37.959 13.672,-47.074c-13.542,5.02 -22.917,7.529 -28.125,7.529c-3.125,0 -7.097,-1.058 -11.914,-3.174c-5.73,-3.172 -10.775,-7.501 -15.137,-12.988c-4.362,-5.487 -6.543,-10.61 -6.543,-15.369c-0,-3.125 1.367,-5.664 4.101,-7.617c16.928,-11.719 38.672,-21.094 65.235,-28.125c26.562,-6.901 53.841,-10.351 81.836,-10.351c60.156,-0 95.247,19.573 105.273,58.718c1.042,4.059 1.563,8.772 1.563,14.139c-0,18.372 -7.162,35.562 -21.485,51.572c-14.583,16.272 -29.817,27.82 -45.703,34.643c14.323,1.815 28.841,6.609 43.555,14.38c7.682,3.5 14.811,7.776 21.387,12.83c6.575,5.052 12.76,11.076 18.554,18.072c5.795,6.995 10.384,15.222 13.77,24.68c3.385,9.456 5.143,19.561 5.273,30.313l0,1.556c-1.692,23.45 -15.885,44.05 -42.578,61.799c-14.844,9.847 -32.682,18.073 -53.515,24.679c-47.136,15.418 -110.612,23.126 -190.43,23.126l-2.539,0.196c-1.823,0.13 -3.125,0.195 -3.906,0.195c-16.276,0 -24.415,-6.371 -24.415,-19.113Zm38.343,-303.518c0.607,1.441 1.734,2.918 3.057,4.583c3.046,3.832 6.528,6.914 10.494,9.202c2.309,1.005 4.174,1.733 5.724,1.733c4.338,-0 12.036,-2.486 23.315,-6.666l18.012,17.126c-2.839,9.034 -7.354,24.588 -13.548,46.659c-6.153,21.993 -11.651,40.911 -16.495,56.753c-4.661,15.33 -7.741,24.331 -8.859,27.125l0.779,-1.762l-45.842,141.505c-0.735,2.546 -1.14,4.962 -1.14,7.26c-0,1.316 -0.069,2.47 0.603,3.26c1.837,2.157 5.379,2.014 9.972,2.014c0.579,-0 1.54,-0.062 2.884,-0.158l3.029,-0.233l0.532,-0c78.006,-0 140.061,-7.373 186.187,-22.46l0.059,-0.019c19.472,-6.174 36.167,-13.813 50.042,-23.015c22.187,-14.755 34.807,-31.342 36.396,-50.799l-0,-0.957c-0.12,-9.12 -1.591,-17.696 -4.464,-25.72c-2.811,-7.854 -6.586,-14.707 -11.398,-20.516c-5.102,-6.161 -10.538,-11.478 -16.329,-15.927c-5.746,-4.416 -11.978,-8.15 -18.691,-11.208l-0.369,-0.168l-0.358,-0.189c-13.124,-6.933 -26.054,-11.269 -38.83,-12.888l-3.723,-26.445c14.232,-6.114 27.789,-16.582 40.855,-31.159c11.789,-13.18 17.955,-27.217 17.955,-42.341c0,-4.059 -0.34,-7.629 -1.129,-10.702l-0,-0.003c-8.634,-33.708 -40.068,-48.313 -91.867,-48.313c-26.794,0 -52.902,3.297 -78.326,9.899c-23.63,6.258 -43.214,14.404 -58.527,24.529Zm89.194,51.505l10.231,-33.416l0.025,-0.077c2.718,-8.517 4.585,-14.868 5.573,-19.063l2.242,-9.518l9.721,-1.065c10.142,-1.111 18.133,-1.645 23.968,-1.645c38.313,0 55.051,15.669 55.051,39.856l-0,3.813l-0.059,0.634c-1.413,15.331 -11.124,32.42 -30.984,50.208l-0.071,0.062c-18.485,16.11 -42.587,25.557 -72.514,27.794l-19.661,1.47l16.478,-59.053Zm2.151,43.782c26.562,-1.985 48.047,-10.128 64.453,-24.426c16.406,-14.695 25.195,-28.398 26.367,-41.107l0,-3.177c0,-17.344 -13.737,-26.016 -41.211,-26.016c-5.468,-0 -12.955,0.521 -22.461,1.562c-1.041,4.421 -2.994,11.12 -5.859,20.096l-10.156,33.173l-11.133,39.895Zm-29.422,45.493l4.739,-5.495l4.388,-2.387c3.664,-1.406 12.285,-2.622 25.959,-2.622c24.896,-0 49.52,3.234 73.894,9.715l0.026,0.007c14.73,3.977 26.504,9.67 35.464,16.781c11.547,9.163 16.76,19.959 16.76,31.785c0,6.953 -1.547,12.963 -4.337,18.071c-7.096,13.863 -19.443,26.094 -37.515,36.197c-16.627,9.293 -35.633,15.904 -57.105,19.744l-0.055,0.01c-32.447,5.535 -59.268,8.259 -80.452,8.259l-5.638,-0.839l-4.268,-2.031l-3.242,-2.832l-2.346,-3.485l-2.51,-5l36.238,-115.878Zm-21.359,114.67c0.521,1.037 1.562,1.556 3.125,1.556c20.573,0 46.614,-2.688 78.125,-8.063c19.791,-3.54 37.37,-9.604 52.734,-18.191c15.365,-8.59 26.042,-18.785 32.031,-30.585c1.823,-3.278 2.735,-7.145 2.735,-11.603c-0,-7.867 -3.841,-14.849 -11.524,-20.944c-7.682,-6.097 -17.838,-10.851 -30.468,-14.261c-23.178,-6.162 -46.615,-9.244 -70.313,-9.244c-13.802,0 -21.289,0.887 -22.461,2.662l-33.984,108.673Zm262.109,-122.467c0,-7.162 2.409,-13.542 7.227,-19.141c7.422,-7.813 15.82,-13.997 25.195,-18.555c8.464,-4.687 15.951,-7.747 22.461,-9.179c9.115,-1.563 19.531,-2.995 31.25,-4.297l28.711,-3.278c5.208,-1.206 15.625,-2.262 31.25,-3.168c12.239,-0.659 25.586,-2.306 40.039,-4.94c14.193,-2.853 30.599,-7.195 49.219,-13.028c0.521,-0 0.781,0.52 0.781,1.562c-0,3.386 -2.669,13.412 -8.008,30.078c-5.078,14.378 -8.268,24.158 -9.57,29.34l-3.711,6.412c-1.172,2.071 -2.865,3.625 -5.078,4.663c-3.646,2.071 -5.664,3.171 -6.055,3.302c-1.562,1.165 -3.971,1.943 -7.227,2.331l-8.007,1.212c-1.563,0.303 -4.623,0.811 -9.18,1.523c-4.557,0.71 -7.617,1.195 -9.18,1.455c-8.073,0.883 -15.299,1.325 -21.679,1.325c-6.901,-0 -11.133,-0.13 -12.696,-0.391c-6.119,-1.042 -13.997,-1.562 -23.633,-1.562l-5.273,-0c-10.156,0.392 -18.815,2.221 -25.977,5.487c-2.213,1.176 -3.125,2.548 -2.734,4.117c1.563,3.527 19.271,7.25 53.125,11.169c23.698,3.005 38.802,5.161 45.313,6.47c4.687,1.043 8.073,2.35 10.156,3.918c2.083,1.569 3.06,3.594 2.93,6.076l-0,17.246l-1.172,6.469c-0.651,2.482 -1.693,4.638 -3.125,6.467c-1.953,1.959 -4.102,3.527 -6.446,4.703c-10.807,6.14 -22.916,10.974 -36.328,14.502l-33.789,8.819c-8.984,2.745 -14.844,6.338 -17.578,10.779c-1.172,1.961 -1.562,3.595 -1.172,4.901c1.042,1.829 4.102,2.744 9.18,2.744c8.463,-0 21.549,-2.428 39.258,-7.285c12.63,-3.279 29.817,-10.234 51.562,-20.865c22.266,-10.76 40.169,-17.781 53.711,-21.063c3.646,-0.525 5.599,-0.787 5.859,-0.787c2.735,-0 5.665,0.521 8.79,1.562c4.947,2.214 7.617,5.599 8.007,10.157c0,0.39 0.065,1.171 0.196,2.343c0.13,1.172 0.195,1.953 0.195,2.344c-0,17.839 -12.891,33.724 -38.672,47.656c-25.781,14.193 -49.805,25.651 -72.07,34.375c-18.229,6.381 -40.235,9.571 -66.016,9.571c-50.521,-0 -78.385,-14.551 -83.594,-43.653c-0.52,-4.138 -0.781,-6.401 -0.781,-6.79c0,-5.741 1.758,-12.005 5.274,-18.793c4.687,-8.744 10.807,-16.117 18.359,-22.119c10.677,-7.7 18.164,-12.79 22.461,-15.268c6.38,-3.523 12.5,-6.46 18.359,-8.81c-1.562,-0.261 -3.841,-0.783 -6.836,-1.569c-20.573,-3.528 -34.961,-7.904 -43.164,-13.128c-3.515,-1.962 -7.096,-7.057 -10.742,-15.287c-4.427,-7.448 -7.422,-16.268 -8.984,-26.458c-0,-0.391 -0.065,-1.335 -0.196,-2.832c-0.13,-1.498 -0.195,-2.442 -0.195,-2.832Zm27.262,35.551l0.29,0.185c7.213,4.594 19.979,8.059 38.068,11.161l0.592,0.101l0.58,0.152c2.455,0.644 4.319,1.091 5.6,1.305l2.877,26.496c-5.334,2.139 -10.9,4.816 -16.743,8.039c-4.059,2.358 -11,7.115 -20.87,14.23c-5.942,4.778 -10.759,10.63 -14.506,17.596c-2.19,4.257 -3.525,8.148 -3.639,11.78c0.087,0.761 0.328,2.862 0.619,5.186c2.349,12.433 10.917,20.745 24.839,25.748c11.734,4.216 26.772,6.169 45.07,6.169c23.877,0 44.29,-2.83 61.215,-8.714c21.696,-8.515 45.091,-19.695 70.244,-33.541l0.048,-0.026c19.769,-10.684 31.253,-21.557 31.41,-35.197c-0.02,-0.222 -0.065,-0.704 -0.109,-1.099c-0.052,-0.469 -0.095,-0.9 -0.131,-1.294c-0.863,-0.229 -1.692,-0.383 -2.492,-0.437c-0.76,0.102 -2.207,0.299 -3.844,0.532c-12.771,3.179 -29.516,9.866 -50.296,19.908c-22.76,11.125 -40.792,18.336 -54.037,21.787c-19.299,5.288 -33.597,7.752 -42.828,7.752c-5.38,0 -9.432,-0.873 -12.246,-2.036l-5.596,-3.506l-3.364,-4.192l-0.781,-1.371l-1.152,-5.55l0.178,-3.698l0.942,-3.749c-0,0 2.131,-4.48 2.178,-4.559l0.048,-0.078c4.027,-6.541 12.09,-12.718 25.592,-16.843l34.048,-8.887c12.181,-3.204 23.188,-7.571 33.004,-13.148l0.311,-0.177l0.319,-0.16c0.736,-0.369 1.422,-0.833 2.07,-1.384c0.079,-0.166 0.145,-0.341 0.207,-0.534l0.832,-4.595l0,-11.998c-0.638,-0.147 -1.353,-0.291 -2.135,-0.462c-6.448,-1.282 -21.148,-3.358 -44.094,-6.268c-29.275,-3.391 -47.314,-7.024 -54.255,-10.145l-5.53,-3.411l-2.631,-2.829l-1.693,-2.918l-0.485,-1.097l-0.726,-6.63l1.454,-5.462l3.321,-4.815l5.332,-3.939l0.37,-0.197l0.381,-0.174c8.605,-3.923 18.98,-6.252 31.451,-6.734l5.54,0c10.581,0 19.23,0.614 25.942,1.756c1.308,0.208 4.772,0.197 10.387,0.197c5.839,0 12.438,-0.407 19.795,-1.201c1.68,-0.276 4.656,-0.747 8.928,-1.413c4.309,-0.673 7.203,-1.149 8.962,-1.49l8.506,-1.287l0.215,-0.026c0.419,-0.05 0.988,-0.164 1.336,-0.238l1.041,-0.776l1.188,-0.396c0.802,-0.437 2.609,-1.429 4.521,-2.515l0.282,-0.16l2.44,-4.213c1.58,-5.717 4.686,-15.195 9.355,-28.422c0.868,-2.711 1.67,-5.213 2.398,-7.507c-10.34,2.839 -19.887,5.137 -28.667,6.901l-0.123,0.023c-15.066,2.746 -28.981,4.454 -41.742,5.143c-14.447,0.837 -24.089,1.717 -28.906,2.833l-0.769,0.178l-29.516,3.369l-0.021,0.002c-11.269,1.253 -21.302,2.625 -30.115,4.129c-5.366,1.228 -11.48,3.857 -18.419,7.7l-0.323,0.179l-0.332,0.161c-7.786,3.785 -14.763,8.914 -20.962,15.379c-2.415,2.904 -3.67,6.182 -3.67,9.87c-0,0.225 0.068,0.768 0.143,1.633c0.093,1.068 0.155,1.938 0.194,2.612c1.29,7.979 3.603,14.932 7.095,20.806l0.422,0.71l0.334,0.756c1.77,3.994 4.848,8.478 5.234,9.034Zm911.996,-35.551c-0,-7.162 2.409,-13.542 7.226,-19.141c7.422,-7.813 15.821,-13.997 25.196,-18.555c8.463,-4.687 15.95,-7.747 22.461,-9.179c9.114,-1.563 19.531,-2.995 31.25,-4.297l28.711,-3.278c5.208,-1.206 15.625,-2.262 31.25,-3.168c12.239,-0.659 25.586,-2.306 40.039,-4.94c14.192,-2.853 30.599,-7.195 49.218,-13.028c0.521,-0 0.782,0.52 0.782,1.562c-0,3.386 -2.67,13.412 -8.008,30.078c-5.078,14.378 -8.268,24.158 -9.57,29.34l-3.711,6.412c-1.172,2.071 -2.865,3.625 -5.078,4.663c-3.646,2.071 -5.665,3.171 -6.055,3.302c-1.563,1.165 -3.971,1.943 -7.227,2.331l-8.008,1.212c-1.562,0.303 -4.622,0.811 -9.179,1.523c-4.557,0.71 -7.617,1.195 -9.18,1.455c-8.073,0.883 -15.299,1.325 -21.68,1.325c-6.901,-0 -11.132,-0.13 -12.695,-0.391c-6.12,-1.042 -13.997,-1.562 -23.633,-1.562l-5.273,-0c-10.156,0.392 -18.815,2.221 -25.977,5.487c-2.213,1.176 -3.125,2.548 -2.734,4.117c1.562,3.527 19.271,7.25 53.125,11.169c23.698,3.005 38.802,5.161 45.312,6.47c4.688,1.043 8.073,2.35 10.157,3.918c2.083,1.569 3.06,3.594 2.929,6.076l0,17.246l-1.172,6.469c-0.651,2.482 -1.692,4.638 -3.125,6.467c-1.953,1.959 -4.101,3.527 -6.445,4.703c-10.807,6.14 -22.916,10.974 -36.328,14.502l-33.789,8.819c-8.984,2.745 -14.844,6.338 -17.578,10.779c-1.172,1.961 -1.563,3.595 -1.172,4.901c1.042,1.829 4.102,2.744 9.18,2.744c8.463,-0 21.549,-2.428 39.257,-7.285c12.631,-3.279 29.818,-10.234 51.563,-20.865c22.266,-10.76 40.169,-17.781 53.711,-21.063c3.646,-0.525 5.599,-0.787 5.859,-0.787c2.735,-0 5.664,0.521 8.789,1.562c4.948,2.214 7.618,5.599 8.008,10.157c0,0.39 0.065,1.171 0.195,2.343c0.131,1.172 0.196,1.953 0.196,2.344c-0,17.839 -12.891,33.724 -38.672,47.656c-25.781,14.193 -49.805,25.651 -72.07,34.375c-18.23,6.381 -40.235,9.571 -66.016,9.571c-50.521,-0 -78.385,-14.551 -83.594,-43.653c-0.521,-4.138 -0.781,-6.401 -0.781,-6.79c-0,-5.741 1.758,-12.005 5.273,-18.793c4.688,-8.744 10.808,-16.117 18.36,-22.119c10.677,-7.7 18.164,-12.79 22.461,-15.268c6.38,-3.523 12.5,-6.46 18.359,-8.81c-1.562,-0.261 -3.841,-0.783 -6.836,-1.569c-20.573,-3.528 -34.961,-7.904 -43.164,-13.128c-3.516,-1.962 -7.096,-7.057 -10.742,-15.287c-4.427,-7.448 -7.422,-16.268 -8.984,-26.458c-0,-0.391 -0.066,-1.335 -0.196,-2.832c-0.13,-1.498 -0.195,-2.442 -0.195,-2.832Zm27.262,35.551l0.29,0.185c7.213,4.594 19.978,8.059 38.068,11.161l0.591,0.101l0.581,0.152c2.455,0.644 4.319,1.091 5.6,1.305l2.876,26.496c-5.333,2.139 -10.9,4.816 -16.743,8.039c-4.058,2.358 -10.999,7.115 -20.869,14.23c-5.942,4.778 -10.76,10.63 -14.506,17.596c-2.19,4.257 -3.525,8.148 -3.639,11.78c0.087,0.761 0.328,2.862 0.619,5.186c2.349,12.433 10.917,20.745 24.839,25.748c11.734,4.216 26.771,6.169 45.07,6.169c23.877,0 44.289,-2.83 61.215,-8.714c21.695,-8.515 45.091,-19.695 70.244,-33.541l0.047,-0.026c19.77,-10.684 31.254,-21.557 31.411,-35.197c-0.02,-0.222 -0.065,-0.704 -0.109,-1.099c-0.052,-0.469 -0.096,-0.9 -0.131,-1.294c-0.863,-0.229 -1.692,-0.383 -2.492,-0.437c-0.76,0.102 -2.207,0.299 -3.844,0.532c-12.771,3.179 -29.516,9.866 -50.296,19.908c-22.76,11.125 -40.793,18.336 -54.037,21.787c-19.299,5.288 -33.597,7.752 -42.828,7.752c-5.38,0 -9.432,-0.873 -12.246,-2.036l-5.596,-3.506l-3.364,-4.192l-0.781,-1.371l-1.153,-5.55l0.179,-3.698l0.941,-3.749c0,0 2.132,-4.48 2.179,-4.559l0.048,-0.078c4.026,-6.541 12.09,-12.718 25.592,-16.843l34.048,-8.887c12.18,-3.204 23.188,-7.571 33.004,-13.148l0.31,-0.177l0.32,-0.16c0.736,-0.369 1.422,-0.833 2.07,-1.384c0.079,-0.166 0.145,-0.341 0.207,-0.534l0.832,-4.595l-0,-11.998c-0.638,-0.147 -1.353,-0.291 -2.135,-0.462c-6.448,-1.282 -21.148,-3.358 -44.094,-6.268c-29.275,-3.391 -47.314,-7.024 -54.255,-10.145l-5.53,-3.411l-2.631,-2.829l-1.693,-2.918l-0.486,-1.097l-0.725,-6.63l1.454,-5.462l3.321,-4.815l5.331,-3.939l0.37,-0.197l0.382,-0.174c8.604,-3.923 18.98,-6.252 31.45,-6.734l5.541,0c10.581,0 19.229,0.614 25.941,1.756c1.309,0.208 4.773,0.197 10.387,0.197c5.839,0 12.439,-0.407 19.796,-1.201c1.68,-0.276 4.656,-0.747 8.928,-1.413c4.309,-0.673 7.202,-1.149 8.961,-1.49l8.506,-1.287l0.216,-0.026c0.419,-0.05 0.988,-0.164 1.336,-0.238l1.041,-0.776l1.188,-0.396c0.802,-0.437 2.609,-1.429 4.521,-2.515l0.282,-0.16l2.439,-4.213c1.581,-5.717 4.686,-15.195 9.356,-28.422c0.868,-2.711 1.67,-5.213 2.398,-7.507c-10.34,2.839 -19.888,5.137 -28.668,6.901l-0.122,0.023c-15.067,2.746 -28.981,4.454 -41.742,5.143c-14.447,0.837 -24.089,1.717 -28.906,2.833l-0.769,0.178l-29.516,3.369l-0.021,0.002c-11.269,1.253 -21.302,2.625 -30.115,4.129c-5.367,1.228 -11.48,3.857 -18.419,7.7l-0.323,0.179l-0.332,0.161c-7.786,3.785 -14.763,8.914 -20.962,15.379c-2.415,2.904 -3.671,6.182 -3.671,9.87c0,0.225 0.068,0.768 0.144,1.633c0.093,1.068 0.154,1.938 0.194,2.612c1.29,7.979 3.603,14.932 7.095,20.806l0.422,0.71l0.334,0.756c1.77,3.994 4.848,8.478 5.234,9.034Zm263.363,82.417c-0,-3.515 0.846,-7.356 2.539,-11.523c3.385,-8.984 8.464,-15.82 15.234,-20.508c11.459,-7.552 23.438,-20.638 35.938,-39.258c12.76,-19.01 22.07,-38.607 27.93,-58.789c0.26,-0.26 0.39,-1.172 0.39,-2.734c0,-5.078 -1.693,-11.849 -5.078,-20.313c-4.427,-10.937 -6.836,-19.596 -7.227,-25.976c0,-0.521 -0.065,-1.465 -0.195,-2.832c-0.13,-1.367 -0.195,-2.311 -0.195,-2.832c-0,-13.151 3.32,-25.326 9.961,-36.524c5.599,-10.547 12.956,-15.82 22.07,-15.82c2.344,-0 4.557,0.26 6.641,0.781c9.765,2.735 17.773,9.636 24.023,20.703c6.511,11.589 10.547,22.526 12.11,32.813c1.302,8.073 1.953,13.672 1.953,16.797c-0,1.172 -0.261,3.841 -0.782,8.008c11.198,10.546 27.344,19.466 48.438,26.757c20.573,7.552 34.7,14.779 42.383,21.68c2.213,1.823 3.515,4.362 3.906,7.617c0.391,2.995 -0.13,6.185 -1.563,9.571c-0.26,1.562 -2.278,5.533 -6.054,11.914c-3.386,5.468 -6.446,10.026 -9.18,13.671l-12.695,15.625c-11.459,13.933 -17.188,26.433 -17.188,37.5c0,2.995 0.651,6.641 1.953,10.938c2.474,6.25 6.316,9.57 11.524,9.961l1.953,-0c5.208,-0 9.635,-0.912 13.281,-2.734l4.883,-0.977c3.385,-0 6.445,1.367 9.18,4.102c5.599,5.598 8.789,11.718 9.57,18.359c0.26,0.521 0.391,1.758 0.391,3.711c-0,5.469 -2.279,9.57 -6.836,12.305c-23.308,11.979 -45.313,17.968 -66.016,17.968l-1.172,0c-11.328,-0.39 -19.596,-1.562 -24.804,-3.515c-4.948,-1.953 -10.026,-7.292 -15.235,-16.016c-5.338,-8.464 -8.008,-18.62 -8.008,-30.469c0,-13.281 3.19,-28.45 9.571,-45.508c4.036,-8.593 8.203,-15.82 12.5,-21.679c4.427,-5.729 8.007,-9.961 10.742,-12.696c2.604,-2.604 3.711,-5.273 3.32,-8.007c-0.39,-2.605 -2.539,-5.013 -6.445,-7.227l-22.07,-10.351l-5.86,10.351l-6.055,11.133l-6.835,9.57l-19.141,26.367c-8.984,12.24 -16.471,21.875 -22.461,28.907c-7.813,8.203 -15.951,15.234 -24.414,21.093c-4.688,3.646 -9.635,6.446 -14.844,8.399c-5.469,1.432 -9.31,2.148 -11.523,2.148l-4.492,-0.39c-5.209,-0.391 -9.18,-2.8 -11.915,-7.227c-2.734,-5.338 -4.101,-10.286 -4.101,-14.844Zm226.741,-99.403c0.136,0.145 0.273,0.252 0.364,0.327l-0.221,-0.199l-0.143,-0.128Zm5.499,129.393l-0.282,-2.396c-0.425,-3.617 -2.343,-6.841 -5.326,-9.901l-0.253,0.05c-4.969,2.133 -10.815,3.323 -17.59,3.323l-2.471,0l-0.517,-0.038c-10.224,-0.767 -18.5,-6.4 -23.357,-18.668l-0.21,-0.533l-0.166,-0.548c-1.778,-5.865 -2.548,-10.862 -2.548,-14.951c-0,-13.555 6.284,-29.191 20.307,-46.253l12.511,-15.398c2.466,-3.308 5.209,-7.414 8.259,-12.338c2.003,-3.398 3.852,-6.989 4.41,-8.088l0.087,-0.521l0.637,-1.505c0.294,-0.695 0.56,-1.333 0.593,-1.991c-6.949,-5.967 -19.457,-11.92 -37.218,-18.446c-23.245,-8.049 -40.932,-18.089 -53.282,-29.721l-5.116,-4.818l0.872,-6.973c0.409,-3.277 0.674,-5.37 0.674,-6.291c0,-2.717 -0.644,-7.575 -1.786,-14.656l-0.01,-0.063c-1.34,-8.82 -4.903,-18.16 -10.484,-28.097c-4.123,-7.297 -9.075,-12.236 -15.52,-14.118c-0.972,-0.224 -2.002,-0.321 -3.087,-0.321c-4.359,0 -7.168,3.426 -10,8.759l-0.166,0.281c-5.357,9.033 -8.026,18.856 -8.026,29.465c0,0.28 0.063,0.785 0.133,1.52c0.149,1.558 0.222,2.741 0.248,3.536c0.376,5.302 2.584,12.395 6.236,21.418l0.011,0.026c4.23,10.577 6.068,19.107 6.068,25.453l-0.33,4.398l-0.91,3.242l-0.011,0.015c-6.258,21.127 -16.048,41.662 -29.419,61.582c-13.724,20.443 -27.071,34.659 -39.675,43.01c-4.521,3.175 -7.764,7.891 -10.099,14.087l-0.066,0.164c-0.932,2.293 -1.522,4.379 -1.522,6.314c0,2.432 0.847,5.004 2.221,7.816c0.254,0.276 0.586,0.424 1.073,0.46l3.805,0.33c1.473,-0.1 3.74,-0.675 6.854,-1.49c3.708,-1.464 7.231,-3.516 10.586,-6.126l0.304,-0.236l0.315,-0.218c7.628,-5.281 14.957,-11.615 22.016,-18.995c5.777,-6.806 12.96,-16.072 21.56,-27.788l19.087,-26.293l6.313,-8.839l5.707,-10.492l12.231,-21.61l34.159,16.022l0.464,0.262c4.392,2.49 7.446,5.294 9.466,8.047l2.411,4.183c-0,-0 1.432,4.985 1.439,5.033l0.038,5.861l-1.485,5.497l-2.577,4.654c-0.891,1.267 -1.953,2.535 -3.204,3.786c-2.422,2.422 -5.561,6.18 -9.482,11.25c-3.711,5.088 -7.285,11.334 -10.782,18.719c-5.576,15.034 -8.495,28.392 -8.495,40.128c-0,8.96 1.837,16.686 5.964,23.229l0.087,0.146c3.086,5.169 5.405,8.969 8.366,10.209c4.254,1.552 10.953,2.256 20.034,2.577l0.928,-0c18.522,-0 38.148,-5.472 58.973,-16.073c0.011,-0.019 0.019,-0.038 0.025,-0.059Z" style="fill:#dadada;"/></g><g transform="matrix(1281.31,0,0,1281.31,6208.5,1452.04)"></g><text x="311.836px" y="1452.04px" style="font-family:'Strato-Medium', 'Strato';font-weight:500;font-size:1281.31px;fill:none;stroke:#000;stroke-width:57.36px;">Bender</text></g></svg>